<mxfile host="app.diagrams.net" agent="Mozilla/5.0 (Windows NT 10.0; Win64; x64) AppleWebKit/537.36 (KHTML, like Gecko) Chrome/135.0.0.0 Safari/537.36" version="26.2.12">
  <diagram id="vkK8o-hsKimOO6CbCIKc" name="第1頁">
    <mxGraphModel dx="1680" dy="918" grid="1" gridSize="10" guides="1" tooltips="1" connect="1" arrows="1" fold="1" page="1" pageScale="1" pageWidth="1169" pageHeight="827" math="0" shadow="0">
      <root>
        <mxCell id="0" />
        <mxCell id="1" parent="0" />
        <mxCell id="GTcwrgPbRRI-NyyI_8eo-38" value="&lt;font face=&quot;標楷體&quot; style=&quot;font-size: 18px;&quot;&gt;環&lt;/font&gt;&lt;div&gt;&lt;font face=&quot;標楷體&quot; style=&quot;font-size: 18px;&quot;&gt;境&lt;/font&gt;&lt;/div&gt;" style="rounded=1;whiteSpace=wrap;html=1;movable=1;resizable=1;rotatable=1;deletable=1;editable=1;locked=0;connectable=1;" vertex="1" parent="1">
          <mxGeometry x="160" y="336.79" width="60" height="177.86" as="geometry" />
        </mxCell>
        <mxCell id="GTcwrgPbRRI-NyyI_8eo-39" value="" style="rounded=1;whiteSpace=wrap;html=1;movable=1;resizable=1;rotatable=1;deletable=1;editable=1;locked=0;connectable=1;strokeWidth=1;fontFamily=標楷體;fontSize=18;fontStyle=0;strokeColor=default;gradientColor=none;" vertex="1" parent="1">
          <mxGeometry x="1010" y="341.43" width="410" height="171.43" as="geometry" />
        </mxCell>
        <mxCell id="GTcwrgPbRRI-NyyI_8eo-40" value="" style="rounded=1;whiteSpace=wrap;html=1;movable=1;resizable=1;rotatable=1;deletable=1;editable=1;locked=0;connectable=1;strokeWidth=1;fontFamily=標楷體;fontSize=18;fontStyle=0" vertex="1" parent="1">
          <mxGeometry x="260" y="270" width="660" height="276.79" as="geometry" />
        </mxCell>
        <mxCell id="GTcwrgPbRRI-NyyI_8eo-41" value="&lt;font style=&quot;font-size: 20px;&quot; color=&quot;#333333&quot;&gt;&lt;span&gt;&lt;b&gt;制定&lt;/b&gt;&lt;/span&gt;&lt;/font&gt;" style="rounded=0;whiteSpace=wrap;html=1;strokeColor=#36393d;fillColor=#cce5ff;fontFamily=標楷體;fontSize=18;fontStyle=0;align=center;verticalAlign=middle;" vertex="1" parent="1">
          <mxGeometry x="535" y="240" width="100" height="60" as="geometry" />
        </mxCell>
        <mxCell id="GTcwrgPbRRI-NyyI_8eo-42" value="&lt;font style=&quot;font-size: 20px;&quot; face=&quot;標楷體&quot;&gt;&lt;b style=&quot;&quot;&gt;驅&lt;/b&gt;&lt;/font&gt;&lt;b style=&quot;font-size: 20px; font-family: 標楷體; background-color: transparent; color: light-dark(rgb(0, 0, 0), rgb(255, 255, 255));&quot;&gt;動&lt;/b&gt;" style="text;html=1;align=center;verticalAlign=middle;whiteSpace=wrap;rounded=0;fontFamily=Helvetica;fontSize=12;fontColor=default;" vertex="1" parent="1">
          <mxGeometry x="565.6225000000001" y="383.995" width="54.375" height="30" as="geometry" />
        </mxCell>
        <mxCell id="GTcwrgPbRRI-NyyI_8eo-43" value="&lt;font style=&quot;font-size: 20px;&quot; face=&quot;標楷體&quot;&gt;&lt;b style=&quot;&quot;&gt;發&lt;/b&gt;&lt;/font&gt;&lt;b style=&quot;font-size: 20px; font-family: 標楷體; background-color: transparent; color: light-dark(rgb(0, 0, 0), rgb(255, 255, 255));&quot;&gt;展&lt;/b&gt;" style="text;html=1;align=center;verticalAlign=middle;whiteSpace=wrap;rounded=0;" vertex="1" parent="1">
          <mxGeometry x="935.0025" y="383.995" width="54.375" height="30" as="geometry" />
        </mxCell>
        <mxCell id="GTcwrgPbRRI-NyyI_8eo-44" value="&lt;font style=&quot;font-size: 20px;&quot; color=&quot;#333333&quot;&gt;數位創新&lt;/font&gt;" style="rounded=0;whiteSpace=wrap;html=1;strokeColor=#36393d;fillColor=#cce5ff;fontFamily=標楷體;fontSize=18;fontStyle=0;align=center;verticalAlign=middle;" vertex="1" parent="1">
          <mxGeometry x="1155.0039590937993" y="297.86" width="100" height="60" as="geometry" />
        </mxCell>
        <mxCell id="GTcwrgPbRRI-NyyI_8eo-45" style="edgeStyle=none;curved=1;rounded=0;orthogonalLoop=1;jettySize=auto;html=1;exitX=1;exitY=1;exitDx=0;exitDy=0;entryX=0;entryY=0.5;entryDx=0;entryDy=0;fontSize=12;startSize=8;endSize=8;" edge="1" parent="1" source="GTcwrgPbRRI-NyyI_8eo-73" target="GTcwrgPbRRI-NyyI_8eo-47">
          <mxGeometry relative="1" as="geometry" />
        </mxCell>
        <mxCell id="GTcwrgPbRRI-NyyI_8eo-46" value="&lt;font style=&quot;font-size: 20px;&quot; face=&quot;標楷體&quot;&gt;&lt;b style=&quot;&quot;&gt;產&lt;/b&gt;&lt;/font&gt;&lt;b style=&quot;font-size: 20px; font-family: 標楷體; background-color: transparent; color: light-dark(rgb(0, 0, 0), rgb(255, 255, 255));&quot;&gt;生&lt;/b&gt;" style="text;html=1;align=center;verticalAlign=middle;whiteSpace=wrap;rounded=0;fontFamily=Helvetica;fontSize=12;fontColor=default;" vertex="1" parent="1">
          <mxGeometry x="1235.6325" y="383.995" width="54.375" height="30" as="geometry" />
        </mxCell>
        <mxCell id="GTcwrgPbRRI-NyyI_8eo-47" value="結果" style="rounded=1;whiteSpace=wrap;html=1;fontSize=18;fontFamily=標楷體;movable=1;resizable=1;rotatable=1;deletable=1;editable=1;locked=0;connectable=1;fontStyle=0;fillColor=#fff2cc;strokeColor=#d6b656;" vertex="1" parent="1">
          <mxGeometry x="1300.0000000000002" y="395.18500000000006" width="100" height="58.93" as="geometry" />
        </mxCell>
        <mxCell id="GTcwrgPbRRI-NyyI_8eo-48" value="&lt;font style=&quot;font-size: 20px;&quot;&gt;數位創新&lt;/font&gt;&lt;div&gt;&lt;font style=&quot;font-size: 20px;&quot;&gt;產品與服務&lt;/font&gt;&lt;/div&gt;" style="rounded=1;whiteSpace=wrap;html=1;fontSize=18;fontFamily=標楷體;movable=1;resizable=1;rotatable=1;deletable=1;editable=1;locked=0;connectable=1;fontStyle=0;fillColor=#fff2cc;strokeColor=#d6b656;" vertex="1" parent="1">
          <mxGeometry x="1450.0000000000002" y="394.65000000000003" width="160" height="60" as="geometry" />
        </mxCell>
        <mxCell id="GTcwrgPbRRI-NyyI_8eo-49" value="&lt;font style=&quot;font-size: 20px;&quot; face=&quot;標楷體&quot;&gt;&lt;b style=&quot;&quot;&gt;影響&lt;/b&gt;&lt;/font&gt;" style="text;html=1;align=center;verticalAlign=middle;whiteSpace=wrap;rounded=0;" vertex="1" parent="1">
          <mxGeometry x="935" y="570" width="54.38" height="30" as="geometry" />
        </mxCell>
        <mxCell id="GTcwrgPbRRI-NyyI_8eo-50" style="edgeStyle=orthogonalEdgeStyle;rounded=0;orthogonalLoop=1;jettySize=auto;html=1;entryX=0;entryY=0.5;entryDx=0;entryDy=0;" edge="1" parent="1" source="GTcwrgPbRRI-NyyI_8eo-47" target="GTcwrgPbRRI-NyyI_8eo-48">
          <mxGeometry relative="1" as="geometry" />
        </mxCell>
        <mxCell id="GTcwrgPbRRI-NyyI_8eo-51" value="" style="endArrow=classic;html=1;rounded=0;exitX=0.5;exitY=1;exitDx=0;exitDy=0;" edge="1" parent="1" source="GTcwrgPbRRI-NyyI_8eo-48">
          <mxGeometry width="50" height="50" relative="1" as="geometry">
            <mxPoint x="1520" y="458.93" as="sourcePoint" />
            <mxPoint x="190" y="518.93" as="targetPoint" />
            <Array as="points">
              <mxPoint x="1530" y="599" />
              <mxPoint x="1520" y="598.93" />
              <mxPoint x="1440" y="598.93" />
              <mxPoint x="900" y="598.93" />
              <mxPoint x="190" y="598.93" />
            </Array>
          </mxGeometry>
        </mxCell>
        <mxCell id="GTcwrgPbRRI-NyyI_8eo-52" style="edgeStyle=orthogonalEdgeStyle;rounded=0;orthogonalLoop=1;jettySize=auto;html=1;" edge="1" parent="1" source="GTcwrgPbRRI-NyyI_8eo-38">
          <mxGeometry relative="1" as="geometry">
            <mxPoint x="310" y="425.7199999999999" as="targetPoint" />
          </mxGeometry>
        </mxCell>
        <mxCell id="GTcwrgPbRRI-NyyI_8eo-55" value="" style="rounded=1;whiteSpace=wrap;html=1;movable=1;resizable=1;rotatable=1;deletable=1;editable=1;locked=0;connectable=1;strokeWidth=1;dashed=1;dashPattern=8 8;fontFamily=標楷體;fontSize=18;fontStyle=0" vertex="1" parent="1">
          <mxGeometry x="310" y="341.43" width="240" height="170" as="geometry" />
        </mxCell>
        <mxCell id="GTcwrgPbRRI-NyyI_8eo-56" value="&lt;font color=&quot;#333333&quot;&gt;&lt;span&gt;認知&lt;/span&gt;&lt;/font&gt;" style="rounded=1;whiteSpace=wrap;html=1;strokeColor=#36393d;fillColor=#eeeeee;fontFamily=標楷體;fontSize=18;fontStyle=0" vertex="1" parent="1">
          <mxGeometry x="395.5817894774317" y="300" width="68.83" height="60" as="geometry" />
        </mxCell>
        <mxCell id="GTcwrgPbRRI-NyyI_8eo-57" value="" style="group;movable=1;resizable=1;rotatable=1;deletable=1;editable=1;locked=0;connectable=1;" vertex="1" connectable="0" parent="1">
          <mxGeometry x="329.99673510104265" y="365.72" width="200.00010875277792" height="120" as="geometry" />
        </mxCell>
        <mxCell id="GTcwrgPbRRI-NyyI_8eo-58" value="企業邏輯" style="rounded=0;whiteSpace=wrap;html=1;movable=1;resizable=1;rotatable=1;deletable=1;editable=1;locked=0;connectable=1;fontFamily=標楷體;fontSize=18;fontStyle=0" vertex="1" parent="GTcwrgPbRRI-NyyI_8eo-57">
          <mxGeometry x="100.00010875277798" y="60" width="100" height="60" as="geometry" />
        </mxCell>
        <mxCell id="GTcwrgPbRRI-NyyI_8eo-59" value="" style="group" vertex="1" connectable="0" parent="GTcwrgPbRRI-NyyI_8eo-57">
          <mxGeometry width="200.00010875277798" height="120" as="geometry" />
        </mxCell>
        <mxCell id="GTcwrgPbRRI-NyyI_8eo-60" value="&lt;span&gt;&lt;font style=&quot;font-size: 20px;&quot;&gt;制度邏輯&lt;/font&gt;&lt;/span&gt;" style="rounded=0;whiteSpace=wrap;html=1;fontSize=18;fontFamily=標楷體;movable=1;resizable=1;rotatable=1;deletable=1;editable=1;locked=0;connectable=1;fillColor=#cce5ff;strokeColor=#36393d;fontStyle=0;align=center;verticalAlign=middle;" vertex="1" parent="GTcwrgPbRRI-NyyI_8eo-59">
          <mxGeometry width="200" height="60" as="geometry" />
        </mxCell>
        <mxCell id="GTcwrgPbRRI-NyyI_8eo-61" value="產業認知" style="rounded=0;whiteSpace=wrap;html=1;movable=1;resizable=1;rotatable=1;deletable=1;editable=1;locked=0;connectable=1;fontFamily=標楷體;fontSize=18;fontStyle=0" vertex="1" parent="GTcwrgPbRRI-NyyI_8eo-59">
          <mxGeometry y="60" width="100" height="60" as="geometry" />
        </mxCell>
        <mxCell id="GTcwrgPbRRI-NyyI_8eo-62" style="edgeStyle=none;curved=1;rounded=0;orthogonalLoop=1;jettySize=auto;html=1;fontSize=12;startSize=8;endSize=8;" edge="1" parent="1" target="GTcwrgPbRRI-NyyI_8eo-39">
          <mxGeometry relative="1" as="geometry">
            <mxPoint x="860" y="426" as="sourcePoint" />
            <Array as="points" />
          </mxGeometry>
        </mxCell>
        <mxCell id="GTcwrgPbRRI-NyyI_8eo-63" value="" style="rounded=1;whiteSpace=wrap;html=1;movable=1;resizable=1;rotatable=1;deletable=1;editable=1;locked=0;connectable=1;strokeWidth=1;dashed=1;dashPattern=8 8;fontFamily=標楷體;fontSize=18;fontStyle=0;arcSize=19;" vertex="1" parent="1">
          <mxGeometry x="627.8091733218195" y="331.43" width="232.19000000000005" height="180" as="geometry" />
        </mxCell>
        <mxCell id="GTcwrgPbRRI-NyyI_8eo-64" value="&lt;font color=&quot;#333333&quot;&gt;&lt;span&gt;資源整合&lt;/span&gt;&lt;/font&gt;&lt;div&gt;&lt;font color=&quot;#333333&quot;&gt;&lt;span&gt;行動&lt;/span&gt;&lt;/font&gt;&lt;/div&gt;" style="rounded=1;whiteSpace=wrap;html=1;strokeColor=#36393d;fillColor=#eeeeee;fontFamily=標楷體;fontSize=18;fontStyle=0" vertex="1" parent="1">
          <mxGeometry x="686.51" y="300" width="114.79" height="60" as="geometry" />
        </mxCell>
        <mxCell id="GTcwrgPbRRI-NyyI_8eo-65" value="" style="group;movable=1;resizable=1;rotatable=1;deletable=1;editable=1;locked=0;connectable=1;" vertex="1" connectable="0" parent="1">
          <mxGeometry x="653.9041733218195" y="366.43" width="180" height="120" as="geometry" />
        </mxCell>
        <mxCell id="GTcwrgPbRRI-NyyI_8eo-66" value="" style="group" vertex="1" connectable="0" parent="GTcwrgPbRRI-NyyI_8eo-65">
          <mxGeometry width="180" height="120" as="geometry" />
        </mxCell>
        <mxCell id="GTcwrgPbRRI-NyyI_8eo-67" value="定位" style="rounded=0;whiteSpace=wrap;html=1;movable=1;resizable=1;rotatable=1;deletable=1;editable=1;locked=0;connectable=1;fontFamily=標楷體;fontSize=18;fontStyle=0" vertex="1" parent="GTcwrgPbRRI-NyyI_8eo-66">
          <mxGeometry x="59.99582667818049" y="60" width="60" height="60" as="geometry" />
        </mxCell>
        <mxCell id="GTcwrgPbRRI-NyyI_8eo-68" value="&lt;span&gt;&lt;font style=&quot;font-size: 20px;&quot;&gt;動態能力&lt;/font&gt;&lt;/span&gt;" style="rounded=0;whiteSpace=wrap;html=1;fontSize=18;fontFamily=標楷體;movable=1;resizable=1;rotatable=1;deletable=1;editable=1;locked=0;connectable=1;fillColor=#cce5ff;strokeColor=#36393d;fontStyle=0" vertex="1" parent="GTcwrgPbRRI-NyyI_8eo-66">
          <mxGeometry width="180" height="60" as="geometry" />
        </mxCell>
        <mxCell id="GTcwrgPbRRI-NyyI_8eo-69" value="路徑" style="rounded=0;whiteSpace=wrap;html=1;movable=1;resizable=1;rotatable=1;deletable=1;editable=1;locked=0;connectable=1;fontFamily=標楷體;fontSize=18;fontStyle=0" vertex="1" parent="GTcwrgPbRRI-NyyI_8eo-66">
          <mxGeometry y="60" width="60" height="60" as="geometry" />
        </mxCell>
        <mxCell id="GTcwrgPbRRI-NyyI_8eo-70" value="&lt;font&gt;&lt;span&gt;&lt;span&gt;流程&lt;/span&gt;&lt;/span&gt;&lt;/font&gt;" style="rounded=0;whiteSpace=wrap;html=1;movable=1;resizable=1;rotatable=1;deletable=1;editable=1;locked=0;connectable=1;fontFamily=標楷體;fontSize=18;fontStyle=0" vertex="1" parent="GTcwrgPbRRI-NyyI_8eo-66">
          <mxGeometry x="120" y="60" width="60" height="60" as="geometry" />
        </mxCell>
        <mxCell id="GTcwrgPbRRI-NyyI_8eo-71" value="" style="group;movable=1;resizable=1;rotatable=1;deletable=1;editable=1;locked=0;connectable=1;" vertex="1" connectable="0" parent="1">
          <mxGeometry x="1030.0000000000002" y="365.72" width="200" height="120" as="geometry" />
        </mxCell>
        <mxCell id="GTcwrgPbRRI-NyyI_8eo-72" value="" style="group;movable=1;resizable=1;rotatable=1;deletable=1;editable=1;locked=0;connectable=1;" vertex="1" connectable="0" parent="GTcwrgPbRRI-NyyI_8eo-71">
          <mxGeometry width="200" height="120" as="geometry" />
        </mxCell>
        <mxCell id="GTcwrgPbRRI-NyyI_8eo-73" value="&lt;span&gt;&lt;font style=&quot;font-size: 20px;&quot;&gt;科技可供性&lt;/font&gt;&lt;/span&gt;" style="rounded=0;whiteSpace=wrap;html=1;fontSize=18;fontFamily=標楷體;movable=1;resizable=1;rotatable=1;deletable=1;editable=1;locked=0;connectable=1;fillColor=#cce5ff;strokeColor=#36393d;fontStyle=0" vertex="1" parent="GTcwrgPbRRI-NyyI_8eo-72">
          <mxGeometry width="200" height="60" as="geometry" />
        </mxCell>
        <mxCell id="GTcwrgPbRRI-NyyI_8eo-74" value="&lt;font&gt;&lt;span&gt;&lt;span&gt;可供性實現&lt;/span&gt;&lt;/span&gt;&lt;/font&gt;" style="rounded=0;whiteSpace=wrap;html=1;movable=1;resizable=1;rotatable=1;deletable=1;editable=1;locked=0;connectable=1;fontFamily=標楷體;fontSize=18;fontStyle=0" vertex="1" parent="GTcwrgPbRRI-NyyI_8eo-72">
          <mxGeometry x="100" y="60" width="100" height="60" as="geometry" />
        </mxCell>
        <mxCell id="GTcwrgPbRRI-NyyI_8eo-75" value="&lt;font&gt;&lt;span&gt;技術可供性&lt;/span&gt;&lt;/font&gt;" style="rounded=0;whiteSpace=wrap;html=1;movable=1;resizable=1;rotatable=1;deletable=1;editable=1;locked=0;connectable=1;fontFamily=標楷體;fontSize=18;fontStyle=0" vertex="1" parent="GTcwrgPbRRI-NyyI_8eo-72">
          <mxGeometry y="60" width="100" height="60" as="geometry" />
        </mxCell>
        <mxCell id="GTcwrgPbRRI-NyyI_8eo-76" style="edgeStyle=none;curved=1;rounded=0;orthogonalLoop=1;jettySize=auto;html=1;exitX=1;exitY=0.5;exitDx=0;exitDy=0;entryX=0.009;entryY=0.527;entryDx=0;entryDy=0;entryPerimeter=0;fontSize=12;startSize=8;endSize=8;" edge="1" parent="1" source="GTcwrgPbRRI-NyyI_8eo-55" target="GTcwrgPbRRI-NyyI_8eo-63">
          <mxGeometry relative="1" as="geometry" />
        </mxCell>
      </root>
    </mxGraphModel>
  </diagram>
</mxfile>
